<svg xmlns="http://www.w3.org/2000/svg" width="128" height="128" viewBox="0 0 128 128">
  <title>GUITAR PICK</title>
  <g>
    <path d="M118.458,26.75C109.754,20.5,91.1,10.02,64,10.02S18.249,20.5,9.546,26.747A11.972,11.972,0,0,0,5.1,40.055a161.949,161.949,0,0,0,51.324,75.233,12.031,12.031,0,0,0,15.147,0A161.934,161.934,0,0,0,122.9,40.05,11.968,11.968,0,0,0,118.458,26.75Zm1.1,12.26a158.343,158.343,0,0,1-50.2,73.565,8.517,8.517,0,0,1-10.725,0A158.362,158.362,0,0,1,8.443,39.015a8.477,8.477,0,0,1,3.144-9.424C19.948,23.589,37.876,13.52,64,13.52s44.055,10.07,52.418,16.073A8.474,8.474,0,0,1,119.557,39.01Z" fill="#241c49" stroke="#0a2119" stroke-miterlimit="10"/>
    <path d="M106.369,34.349A81.629,81.629,0,0,0,64,23.02h0A81.632,81.632,0,0,0,21.636,34.346,5.743,5.743,0,0,0,19.2,41.2h0A149.558,149.558,0,0,0,37.294,75.745c.011.019.017.039.028.058a1.685,1.685,0,0,0,.171.227,146.943,146.943,0,0,0,22.67,25.378,5.8,5.8,0,0,0,7.674,0A146.919,146.919,0,0,0,90.582,75.922a1.386,1.386,0,0,0,.1-.119c.011-.019.017-.039.027-.058A149.394,149.394,0,0,0,108.8,41.192,5.733,5.733,0,0,0,106.369,34.349Zm-82.929,3a77.922,77.922,0,0,1,38.81-10.79v32.1L39.328,72.542A145.743,145.743,0,0,1,22.492,40.011h0A2.237,2.237,0,0,1,23.44,37.344ZM65.517,98.787a2.292,2.292,0,0,1-3.034,0A143.222,143.222,0,0,1,41.351,75.408L64,61.682,86.649,75.408A143.217,143.217,0,0,1,65.517,98.787ZM105.508,40A145.673,145.673,0,0,1,88.672,72.541L65.75,58.65v-32.1a77.9,77.9,0,0,1,38.813,10.793A2.228,2.228,0,0,1,105.508,40Z" fill="#241c49" stroke="#0a2119" stroke-miterlimit="10"/>
  </g>
</svg>
